# xmcd CD database file
#
# Track frame offsets:
#	150
#	13503
#	25032
#	36183
#	47307
#	59268
#	76089
#	92721
#	104925
#	116238
#	129171
#	139269
#	153498
#
# Disc length: 2255 seconds
#
# Revision: 2
# Processed by: cddbd v1.5.2PL0 Copyright (c) Steve Scherf et al.
# Submitted via: CDex 1.72
#
DISCID=a208cd0d
DTITLE=Rizdales, The [CDN-04-Bar and Lounge-cty) - bAT aND LOUNGE
DYEAR=2004
DGENRE=Country
TTITLE0=Sing Right Out Loud
TTITLE1=I Could Tell You Lies
TTITLE2=You Stood There So Calmly
TTITLE3=Man I'm On Fire
TTITLE4=Sundays I can't Take
TTITLE5=A Little Voodoo
TTITLE6=Worst Thing I Could Do
TTITLE7=You'd Almost Think I'm In Love
TTITLE8=Before You Break His Heart
TTITLE9=Wedding Ring
TTITLE10=Falling In Love Today
TTITLE11=Sadder Than You Know
TTITLE12=If You See My Baby
EXTD=YEAR: 2004
EXTT0=
EXTT1=
EXTT2=
EXTT3=
EXTT4=
EXTT5=
EXTT6=
EXTT7=
EXTT8=
EXTT9=
EXTT10=
EXTT11=
EXTT12=
PLAYORDER=
